<svg width="171" height="66" viewBox="0 0 171 66" fill="none" xmlns="http://www.w3.org/2000/svg">
<rect width="171" height="66" fill=""/>
<path d="M42.108 17.736C42.18 18.144 42.228 18.432 42.252 18.6C42.3 18.744 42.324 18.948 42.324 19.212C42.324 20.004 42.144 20.748 41.784 21.444C41.448 22.116 40.98 22.596 40.38 22.884C39.9 22.236 39.312 21.684 38.616 21.228C37.92 20.748 37.152 20.364 36.312 20.076C35.496 19.764 34.644 19.536 33.756 19.392C32.868 19.248 32.004 19.176 31.164 19.176C30.324 19.176 29.532 19.248 28.788 19.392C28.068 19.512 27.42 19.692 26.844 19.932C26.292 20.148 25.848 20.424 25.512 20.76C25.2 21.096 25.044 21.48 25.044 21.912C25.116 22.44 25.44 22.98 26.016 23.532C26.592 24.06 27.3 24.588 28.14 25.116C28.98 25.62 29.904 26.124 30.912 26.628C31.944 27.132 32.952 27.612 33.936 28.068C35.16 28.644 36.216 29.184 37.104 29.688C37.992 30.168 38.724 30.708 39.3 31.308C39.876 31.884 40.308 32.544 40.596 33.288C40.884 34.032 41.028 34.932 41.028 35.988C41.028 37.212 40.824 38.364 40.416 39.444C40.008 40.5 39.408 41.424 38.616 42.216C37.848 43.008 36.912 43.62 35.808 44.052C34.704 44.508 33.468 44.736 32.1 44.736C30.756 44.736 29.304 44.532 27.744 44.124C26.184 43.716 24.72 43.152 23.352 42.432C22.008 41.736 20.88 40.932 19.968 40.02C19.08 39.084 18.636 38.1 18.636 37.068C18.636 36.588 18.768 35.976 19.032 35.232C19.32 34.488 19.824 33.708 20.544 32.892C20.616 33.612 21 34.464 21.696 35.448C22.416 36.432 23.484 37.344 24.9 38.184C26.22 38.952 27.576 39.516 28.968 39.876C30.384 40.212 31.704 40.38 32.928 40.38C34.272 40.38 35.364 40.212 36.204 39.876C37.044 39.54 37.704 39.144 38.184 38.688C38.664 38.208 39 37.728 39.192 37.248C39.384 36.768 39.492 36.384 39.516 36.096C39.492 35.616 39.264 35.16 38.832 34.728C38.424 34.272 37.86 33.84 37.14 33.432C36.444 33 35.628 32.568 34.692 32.136C33.756 31.704 32.784 31.272 31.776 30.84C30.264 30.168 28.956 29.544 27.852 28.968C26.772 28.368 25.872 27.768 25.152 27.168C24.456 26.544 23.94 25.896 23.604 25.224C23.292 24.552 23.136 23.784 23.136 22.92C23.136 21.576 23.544 20.304 24.36 19.104C25.176 17.904 26.352 16.992 27.888 16.368C28.656 16.032 29.472 15.792 30.336 15.648C31.224 15.504 32.088 15.432 32.928 15.432C34.512 15.432 36.06 15.648 37.572 16.08C39.084 16.512 40.596 17.064 42.108 17.736ZM43.5593 39.588C43.5593 39.372 43.5713 39.108 43.5953 38.796C43.6433 38.46 43.7153 38.028 43.8113 37.5C43.9073 36.948 44.0273 36.288 44.1713 35.52C44.3393 34.752 44.5433 33.828 44.7832 32.748C44.8313 32.508 44.9393 32.124 45.1073 31.596C45.2753 31.068 45.4913 30.516 45.7553 29.94C46.0433 29.34 46.3793 28.764 46.7633 28.212C47.1713 27.66 47.6513 27.252 48.2033 26.988C48.6113 27.084 49.1513 27.336 49.8233 27.744C50.4953 28.128 51.0713 28.668 51.5513 29.364C50.9993 29.988 50.5313 30.612 50.1473 31.236C49.7873 31.86 49.4513 32.508 49.1393 33.18C48.8513 33.852 48.5753 34.548 48.3113 35.268C48.0713 35.988 47.7953 36.744 47.4833 37.536C47.2193 38.208 46.9793 38.904 46.7633 39.624C46.5473 40.32 46.4273 40.932 46.4033 41.46C46.4033 41.892 46.3913 42.192 46.3673 42.36C46.3673 42.552 46.3073 42.648 46.1873 42.648C46.0913 42.648 45.8993 42.588 45.6113 42.468C45.3233 42.348 45.0233 42.168 44.7113 41.928C44.4233 41.664 44.1593 41.34 43.9193 40.956C43.6793 40.572 43.5593 40.116 43.5593 39.588ZM50.4353 23.964C50.4353 23.82 50.4713 23.604 50.5433 23.316C50.4233 23.196 50.3153 23.016 50.2193 22.776C50.1473 22.536 50.1113 22.32 50.1113 22.128C50.1113 21.912 50.1353 21.624 50.1833 21.264C50.2553 20.88 50.3393 20.472 50.4353 20.04C50.5313 19.608 50.6513 19.164 50.7953 18.708C50.9393 18.228 51.0833 17.796 51.2273 17.412C51.5153 17.412 51.8633 17.496 52.2713 17.664C52.7033 17.808 53.1353 18.012 53.5673 18.276C53.9993 18.516 54.3953 18.792 54.7553 19.104C55.1153 19.392 55.3913 19.668 55.5833 19.932C55.3193 20.196 54.9713 20.568 54.5393 21.048C54.1073 21.504 53.6873 21.996 53.2793 22.524C52.8713 23.028 52.4993 23.508 52.1633 23.964C51.8273 24.42 51.6113 24.744 51.5153 24.936C51.2273 24.888 50.9753 24.768 50.7593 24.576C50.5433 24.36 50.4353 24.156 50.4353 23.964ZM72.8391 30.948C72.4551 30.972 71.9871 31.224 71.4351 31.704C70.8831 32.16 70.2831 32.76 69.6351 33.504C69.0111 34.224 68.3511 35.028 67.6551 35.916C66.9831 36.804 66.3231 37.692 65.6751 38.58C65.0511 39.444 64.4631 40.26 63.9111 41.028C63.3591 41.796 62.8911 42.408 62.5071 42.864C61.9791 42.648 61.5231 42.336 61.1391 41.928C60.7551 41.496 60.4791 40.968 60.3111 40.344C60.4311 39.6 60.5991 38.832 60.8151 38.04C61.0311 37.224 61.3071 36.384 61.6431 35.52C62.0031 34.656 62.4351 33.756 62.9391 32.82C63.4671 31.86 64.1031 30.852 64.8471 29.796C64.4871 29.82 63.9951 30.084 63.3711 30.588C62.7471 31.068 62.0751 31.704 61.3551 32.496C60.6351 33.264 59.8911 34.14 59.1231 35.124C58.3551 36.084 57.6351 37.032 56.9631 37.968C56.0751 39.216 55.3311 40.308 54.7311 41.244C54.1551 42.18 53.7351 42.732 53.4711 42.9C52.8471 42.444 52.4151 41.952 52.1751 41.424C51.9351 40.896 51.7551 40.308 51.6351 39.66C51.6591 39.084 51.7431 38.364 51.8871 37.5C52.0551 36.636 52.2831 35.748 52.5711 34.836C53.1231 33.084 53.8311 31.344 54.6951 29.616C55.5831 27.888 56.4351 26.304 57.2511 24.864C57.9231 25.008 58.5231 25.236 59.0511 25.548C59.6031 25.86 60.1791 26.316 60.7791 26.916C60.5391 27.66 60.1671 28.452 59.6631 29.292C59.1591 30.108 58.6311 30.972 58.0791 31.884C57.5271 32.796 57.0231 33.732 56.5671 34.692C56.1111 35.652 55.8111 36.624 55.6671 37.608C56.3391 36.648 57.1311 35.544 58.0431 34.296C58.9791 33.048 59.9271 31.872 60.8871 30.768C61.8711 29.664 62.8431 28.728 63.8031 27.96C64.7631 27.192 65.6271 26.808 66.3951 26.808C66.6831 26.808 66.9951 26.856 67.3311 26.952C67.6671 27.048 67.9791 27.168 68.2671 27.312C68.5551 27.456 68.7951 27.6 68.9871 27.744C69.1791 27.864 69.2871 27.96 69.3111 28.032C69.1911 28.512 68.9031 29.172 68.4471 30.012C68.0151 30.828 67.5471 31.692 67.0431 32.604C66.5391 33.516 66.0711 34.404 65.6391 35.268C65.2071 36.108 64.9551 36.78 64.8831 37.284C66.0591 35.676 67.1631 34.224 68.1951 32.928C69.2271 31.608 70.1991 30.48 71.1111 29.544C72.0231 28.608 72.8631 27.888 73.6311 27.384C74.4231 26.88 75.1671 26.628 75.8631 26.628C76.3431 26.628 76.7871 26.76 77.1951 27.024C77.6271 27.264 77.9271 27.624 78.0951 28.104C77.8791 28.824 77.5191 29.688 77.0151 30.696C76.5351 31.704 76.0431 32.772 75.5391 33.9C75.0351 35.004 74.5791 36.096 74.1711 37.176C73.7871 38.256 73.5951 39.228 73.5951 40.092C73.5951 40.596 73.6671 40.932 73.8111 41.1C73.9551 41.244 74.1591 41.316 74.4231 41.316C74.7111 41.316 74.9751 41.268 75.2151 41.172C75.4791 41.052 75.6711 40.992 75.7911 40.992C75.9351 41.088 76.0191 41.208 76.0431 41.352C76.0671 41.496 76.0791 41.628 76.0791 41.748C75.5991 42.132 75.1071 42.444 74.6031 42.684C74.0991 42.948 73.5351 43.08 72.9111 43.08C72.3351 43.08 71.8551 42.984 71.4711 42.792C71.1111 42.6 70.8111 42.336 70.5711 42C70.3311 41.664 70.1631 41.28 70.0671 40.848C69.9711 40.416 69.9231 39.948 69.9231 39.444C69.9231 38.628 70.0311 37.824 70.2471 37.032C70.4631 36.216 70.7151 35.448 71.0031 34.728C71.3151 33.984 71.6391 33.3 71.9751 32.676C72.3111 32.028 72.5991 31.452 72.8391 30.948ZM82.7298 42.252C83.8338 41.508 84.9138 40.56 85.9698 39.408C87.0258 38.232 87.9858 36.972 88.8498 35.628C89.7138 34.26 90.4458 32.844 91.0458 31.38C91.6458 29.916 92.0538 28.512 92.2698 27.168C92.2698 26.88 92.1138 26.688 91.8018 26.592C91.4658 26.592 90.9978 26.892 90.3978 27.492C89.8218 28.068 89.1738 28.812 88.4538 29.724C87.7578 30.636 87.0378 31.656 86.2938 32.784C85.5738 33.912 84.9138 35.04 84.3138 36.168C83.7138 37.272 83.1978 38.316 82.7658 39.3C82.3578 40.26 82.1298 41.04 82.0818 41.64C81.8418 41.64 81.6378 41.4 81.4698 40.92C81.4218 40.8 81.3378 40.68 81.2178 40.56C81.0978 40.416 80.9058 40.248 80.6418 40.056C80.5218 39.96 80.4018 39.852 80.2818 39.732C80.1618 39.588 80.0778 39.468 80.0298 39.372C79.9338 39.18 79.8858 38.868 79.8858 38.436C79.8858 37.02 80.0658 35.424 80.4258 33.648C80.7858 31.872 81.2538 30.06 81.8298 28.212C82.4298 26.364 83.1258 24.552 83.9178 22.776C84.7098 20.976 85.5258 19.332 86.3658 17.844C87.2298 16.356 88.0938 15.096 88.9578 14.064C89.8218 13.032 90.6378 12.348 91.4058 12.012C91.6458 12.084 91.9338 12.204 92.2698 12.372C92.6058 12.54 92.9418 12.732 93.2778 12.948C93.6138 13.164 93.9258 13.38 94.2138 13.596C94.5258 13.812 94.7538 14.004 94.8978 14.172C92.2578 16.308 89.9658 19.056 88.0218 22.416C86.1018 25.752 84.5298 29.7 83.3058 34.26C83.9778 33.012 84.7338 31.812 85.5738 30.66C86.4138 29.484 87.2418 28.452 88.0578 27.564C88.8978 26.676 89.6898 25.968 90.4338 25.44C91.2018 24.912 91.8378 24.648 92.3418 24.648C92.7258 24.744 93.0978 24.912 93.4578 25.152C93.8178 25.392 94.1418 25.692 94.4298 26.052C94.7178 26.388 94.9578 26.76 95.1498 27.168C95.3418 27.552 95.4618 27.96 95.5098 28.392C95.4858 29.4 95.3058 30.48 94.9698 31.632C94.6578 32.76 94.2258 33.876 93.6738 34.98C93.1458 36.084 92.5338 37.14 91.8378 38.148C91.1658 39.156 90.4458 40.044 89.6778 40.812C88.9338 41.556 88.1778 42.156 87.4098 42.612C86.6658 43.068 85.9578 43.296 85.2858 43.296C84.9978 43.296 84.6978 43.26 84.3858 43.188C84.0978 43.14 83.8218 43.056 83.5578 42.936C83.3178 42.84 83.1138 42.732 82.9458 42.612C82.8018 42.492 82.7298 42.372 82.7298 42.252ZM108.818 27.456C109.058 27.456 109.334 27.504 109.646 27.6C109.982 27.672 110.282 27.78 110.546 27.924C110.81 28.044 111.026 28.176 111.194 28.32C111.386 28.464 111.482 28.596 111.482 28.716C111.002 29.724 110.558 30.744 110.15 31.776C109.742 32.784 109.394 33.756 109.106 34.692C108.818 35.628 108.59 36.504 108.422 37.32C108.278 38.136 108.206 38.844 108.206 39.444C108.206 40.116 108.278 40.68 108.422 41.136C108.566 41.568 108.806 41.88 109.142 42.072C108.854 42.264 108.482 42.42 108.026 42.54C107.57 42.66 107.162 42.72 106.802 42.72C105.506 42.72 104.858 41.832 104.858 40.056C104.858 38.688 105.314 36.816 106.226 34.44C105.746 35.544 105.194 36.588 104.57 37.572C103.946 38.532 103.31 39.384 102.662 40.128C102.014 40.872 101.354 41.484 100.682 41.964C100.034 42.42 99.4343 42.696 98.8823 42.792C97.9943 42.744 97.2743 42.324 96.7223 41.532C96.1703 40.716 95.8943 39.684 95.8943 38.436C95.8943 37.092 96.1823 35.676 96.7583 34.188C97.3343 32.7 98.0663 31.32 98.9543 30.048C99.8663 28.776 100.85 27.72 101.906 26.88C102.962 26.016 103.982 25.56 104.966 25.512C105.206 25.584 105.47 25.728 105.758 25.944C106.07 26.16 106.358 26.412 106.622 26.7C106.91 26.988 107.15 27.288 107.342 27.6C107.534 27.888 107.642 28.14 107.666 28.356C106.706 28.5 105.71 28.968 104.678 29.76C103.67 30.552 102.746 31.512 101.906 32.64C101.09 33.744 100.418 34.932 99.8903 36.204C99.3623 37.476 99.0983 38.664 99.0983 39.768C99.0983 40.224 99.2663 40.512 99.6023 40.632C100.298 40.488 101.102 39.9 102.014 38.868C102.926 37.812 104.03 36.192 105.326 34.008C105.566 33.576 105.83 33.096 106.118 32.568C106.43 32.04 106.742 31.488 107.054 30.912C107.366 30.336 107.666 29.76 107.954 29.184C108.266 28.584 108.554 28.008 108.818 27.456ZM114.316 43.368C113.932 43.32 113.524 43.152 113.092 42.864C112.684 42.6 112.42 42.3 112.3 41.964C112.3 41.676 112.336 41.304 112.408 40.848C112.504 40.392 112.612 39.936 112.732 39.48C112.852 39 112.972 38.556 113.092 38.148C113.212 37.716 113.296 37.392 113.344 37.176C113.632 37.176 113.992 37.248 114.424 37.392C114.88 37.536 115.336 37.74 115.792 38.004C116.272 38.244 116.716 38.532 117.124 38.868C117.556 39.18 117.88 39.504 118.096 39.84C117.88 40.32 117.604 40.776 117.268 41.208C116.932 41.64 116.572 42.012 116.188 42.324C115.828 42.66 115.48 42.912 115.144 43.08C114.808 43.272 114.532 43.368 114.316 43.368ZM133.126 40.128C133.486 39.336 133.918 38.316 134.422 37.068C134.926 35.82 135.454 34.476 136.006 33.036C136.558 31.572 137.122 30.084 137.698 28.572C138.274 27.036 138.814 25.584 139.318 24.216C139.822 22.848 140.254 21.624 140.614 20.544C140.998 19.464 141.274 18.636 141.442 18.06C139.93 18.684 138.634 19.632 137.554 20.904C136.474 22.176 135.658 23.772 135.106 25.692C134.554 25.5 134.05 25.164 133.594 24.684C133.138 24.18 132.838 23.556 132.694 22.812C132.934 21.708 133.378 20.7 134.026 19.788C134.698 18.876 135.538 18.096 136.546 17.448C137.554 16.8 138.718 16.308 140.038 15.972C141.358 15.612 142.774 15.432 144.286 15.432C146.206 15.432 147.97 15.72 149.578 16.296C151.186 16.848 152.566 17.628 153.718 18.636C154.87 19.644 155.77 20.856 156.418 22.272C157.066 23.688 157.39 25.26 157.39 26.988C157.39 29.34 156.958 31.584 156.094 33.72C155.23 35.856 154.054 37.74 152.566 39.372C151.102 41.004 149.398 42.3 147.454 43.26C145.51 44.244 143.47 44.736 141.334 44.736C139.366 44.736 137.674 44.34 136.258 43.548C134.866 42.78 133.822 41.64 133.126 40.128ZM145.834 17.232C144.634 17.232 143.494 17.4 142.414 17.736C143.47 18.12 144.346 18.528 145.042 18.96C145.738 19.368 146.218 19.692 146.482 19.932C146.29 20.196 146.002 20.664 145.618 21.336C145.258 22.008 144.826 22.824 144.322 23.784C143.842 24.744 143.326 25.8 142.774 26.952C142.222 28.08 141.682 29.244 141.154 30.444C139.786 33.492 138.79 35.892 138.166 37.644C137.566 39.396 137.266 40.608 137.266 41.28C137.602 41.4 138.01 41.484 138.49 41.532C138.97 41.58 139.486 41.604 140.038 41.604C141.982 41.604 143.818 41.16 145.546 40.272C147.298 39.36 148.822 38.148 150.118 36.636C151.438 35.124 152.47 33.372 153.214 31.38C153.982 29.364 154.366 27.252 154.366 25.044C154.366 22.572 153.598 20.652 152.062 19.284C150.526 17.916 148.45 17.232 145.834 17.232Z" fill="#76419A"/>
</svg>
